<mxfile host="app.diagrams.net" modified="2024-05-20T16:58:06.132Z" agent="Mozilla/5.0 (Macintosh; Intel Mac OS X 10_15_7) AppleWebKit/605.1.15 (KHTML, like Gecko) Version/17.1 Safari/605.1.15" etag="BMOnEukjDGX5DNKfOmq6" version="24.4.4" type="github">
  <diagram name="Sayfa -1" id="IKK8eBeUung-aFnuJkfC">
    <mxGraphModel dx="1122" dy="651" grid="1" gridSize="12" guides="1" tooltips="1" connect="1" arrows="1" fold="1" page="0" pageScale="1" pageWidth="827" pageHeight="1169" math="0" shadow="0">
      <root>
        <mxCell id="0" />
        <mxCell id="1" parent="0" />
        <mxCell id="tISYJEiSLWu-KPzFYmVj-1" value="Kullanıcı&lt;div&gt;&lt;br&gt;&lt;/div&gt;" style="shape=umlActor;verticalLabelPosition=bottom;verticalAlign=top;html=1;outlineConnect=0;" parent="1" vertex="1">
          <mxGeometry x="108" y="252" width="54" height="108" as="geometry" />
        </mxCell>
        <mxCell id="tISYJEiSLWu-KPzFYmVj-9" value="" style="swimlane;startSize=0;" parent="1" vertex="1">
          <mxGeometry x="276" y="84" width="540" height="576" as="geometry" />
        </mxCell>
        <mxCell id="tISYJEiSLWu-KPzFYmVj-10" value="RecomAI" style="text;html=1;align=center;verticalAlign=middle;resizable=0;points=[];autosize=1;strokeColor=none;fillColor=none;" parent="tISYJEiSLWu-KPzFYmVj-9" vertex="1">
          <mxGeometry width="72" height="24" as="geometry" />
        </mxCell>
        <mxCell id="tISYJEiSLWu-KPzFYmVj-11" value="" style="endArrow=none;html=1;rounded=0;entryX=-0.014;entryY=1.042;entryDx=0;entryDy=0;entryPerimeter=0;exitX=0.203;exitY=0;exitDx=0;exitDy=0;exitPerimeter=0;" parent="tISYJEiSLWu-KPzFYmVj-9" source="tISYJEiSLWu-KPzFYmVj-9" target="tISYJEiSLWu-KPzFYmVj-10" edge="1">
          <mxGeometry width="50" height="50" relative="1" as="geometry">
            <mxPoint x="120" y="278" as="sourcePoint" />
            <mxPoint x="170" y="228" as="targetPoint" />
            <Array as="points">
              <mxPoint x="90" y="24" />
            </Array>
          </mxGeometry>
        </mxCell>
        <mxCell id="tISYJEiSLWu-KPzFYmVj-12" value="kayıt ol" style="ellipse;whiteSpace=wrap;html=1;" parent="tISYJEiSLWu-KPzFYmVj-9" vertex="1">
          <mxGeometry x="72" y="36" width="108" height="36" as="geometry" />
        </mxCell>
        <mxCell id="tISYJEiSLWu-KPzFYmVj-13" value="giriş yap" style="ellipse;whiteSpace=wrap;html=1;" parent="tISYJEiSLWu-KPzFYmVj-9" vertex="1">
          <mxGeometry x="72" y="84" width="108" height="36" as="geometry" />
        </mxCell>
        <mxCell id="tISYJEiSLWu-KPzFYmVj-19" value="film adı giriş" style="ellipse;whiteSpace=wrap;html=1;" parent="tISYJEiSLWu-KPzFYmVj-9" vertex="1">
          <mxGeometry x="72" y="144" width="108" height="36" as="geometry" />
        </mxCell>
        <mxCell id="tISYJEiSLWu-KPzFYmVj-20" value="müzik adı giriş" style="ellipse;whiteSpace=wrap;html=1;" parent="tISYJEiSLWu-KPzFYmVj-9" vertex="1">
          <mxGeometry x="60" y="228" width="108" height="36" as="geometry" />
        </mxCell>
        <mxCell id="tISYJEiSLWu-KPzFYmVj-30" value="önerilen film listesi" style="ellipse;whiteSpace=wrap;html=1;" parent="tISYJEiSLWu-KPzFYmVj-9" vertex="1">
          <mxGeometry x="240" y="144" width="108" height="36" as="geometry" />
        </mxCell>
        <mxCell id="tISYJEiSLWu-KPzFYmVj-31" value="önerilen müzik listesi" style="ellipse;whiteSpace=wrap;html=1;" parent="tISYJEiSLWu-KPzFYmVj-9" vertex="1">
          <mxGeometry x="228" y="228" width="108" height="36" as="geometry" />
        </mxCell>
        <mxCell id="tISYJEiSLWu-KPzFYmVj-45" value="&amp;lt;extend&amp;gt;" style="html=1;verticalAlign=bottom;endArrow=open;dashed=1;endSize=8;curved=0;rounded=0;exitX=0;exitY=0.5;exitDx=0;exitDy=0;entryX=1;entryY=0.5;entryDx=0;entryDy=0;" parent="tISYJEiSLWu-KPzFYmVj-9" source="tISYJEiSLWu-KPzFYmVj-31" target="tISYJEiSLWu-KPzFYmVj-20" edge="1">
          <mxGeometry relative="1" as="geometry">
            <mxPoint x="164" y="252" as="sourcePoint" />
            <mxPoint x="168" y="252" as="targetPoint" />
          </mxGeometry>
        </mxCell>
        <mxCell id="tISYJEiSLWu-KPzFYmVj-46" value="&amp;lt;extend&amp;gt;" style="html=1;verticalAlign=bottom;endArrow=open;dashed=1;endSize=8;curved=0;rounded=0;exitX=0;exitY=0.5;exitDx=0;exitDy=0;entryX=1;entryY=0.5;entryDx=0;entryDy=0;" parent="tISYJEiSLWu-KPzFYmVj-9" source="tISYJEiSLWu-KPzFYmVj-30" target="tISYJEiSLWu-KPzFYmVj-19" edge="1">
          <mxGeometry relative="1" as="geometry">
            <mxPoint x="252" y="222" as="sourcePoint" />
            <mxPoint x="192" y="222" as="targetPoint" />
          </mxGeometry>
        </mxCell>
        <mxCell id="tISYJEiSLWu-KPzFYmVj-21" value="profili" style="ellipse;whiteSpace=wrap;html=1;" parent="tISYJEiSLWu-KPzFYmVj-9" vertex="1">
          <mxGeometry x="24" y="345" width="108" height="36" as="geometry" />
        </mxCell>
        <mxCell id="tISYJEiSLWu-KPzFYmVj-22" value="çıkış" style="ellipse;whiteSpace=wrap;html=1;" parent="tISYJEiSLWu-KPzFYmVj-9" vertex="1">
          <mxGeometry x="192" y="345" width="108" height="36" as="geometry" />
        </mxCell>
        <mxCell id="tISYJEiSLWu-KPzFYmVj-47" value="&amp;lt;extend&amp;gt;" style="html=1;verticalAlign=bottom;endArrow=open;dashed=1;endSize=8;curved=0;rounded=0;exitX=0;exitY=0.5;exitDx=0;exitDy=0;" parent="tISYJEiSLWu-KPzFYmVj-9" source="tISYJEiSLWu-KPzFYmVj-22" edge="1">
          <mxGeometry relative="1" as="geometry">
            <mxPoint x="156" y="363" as="sourcePoint" />
            <mxPoint x="132" y="363" as="targetPoint" />
          </mxGeometry>
        </mxCell>
        <mxCell id="tISYJEiSLWu-KPzFYmVj-49" value="film geçmişi" style="ellipse;whiteSpace=wrap;html=1;" parent="tISYJEiSLWu-KPzFYmVj-9" vertex="1">
          <mxGeometry x="192" y="417" width="108" height="36" as="geometry" />
        </mxCell>
        <mxCell id="tISYJEiSLWu-KPzFYmVj-50" value="müzik geçmişi" style="ellipse;whiteSpace=wrap;html=1;" parent="tISYJEiSLWu-KPzFYmVj-9" vertex="1">
          <mxGeometry x="192" y="465" width="108" height="36" as="geometry" />
        </mxCell>
        <mxCell id="tISYJEiSLWu-KPzFYmVj-51" value="" style="endArrow=classic;html=1;rounded=0;exitX=0;exitY=0.5;exitDx=0;exitDy=0;entryX=1;entryY=1;entryDx=0;entryDy=0;" parent="tISYJEiSLWu-KPzFYmVj-9" source="tISYJEiSLWu-KPzFYmVj-49" target="tISYJEiSLWu-KPzFYmVj-21" edge="1">
          <mxGeometry width="50" height="50" relative="1" as="geometry">
            <mxPoint x="276" y="335" as="sourcePoint" />
            <mxPoint x="326" y="285" as="targetPoint" />
          </mxGeometry>
        </mxCell>
        <mxCell id="tISYJEiSLWu-KPzFYmVj-52" value="" style="endArrow=classic;html=1;rounded=0;exitX=0;exitY=0.5;exitDx=0;exitDy=0;entryX=0.5;entryY=1;entryDx=0;entryDy=0;" parent="tISYJEiSLWu-KPzFYmVj-9" source="tISYJEiSLWu-KPzFYmVj-50" target="tISYJEiSLWu-KPzFYmVj-21" edge="1">
          <mxGeometry width="50" height="50" relative="1" as="geometry">
            <mxPoint x="276" y="335" as="sourcePoint" />
            <mxPoint x="326" y="285" as="targetPoint" />
          </mxGeometry>
        </mxCell>
        <mxCell id="tISYJEiSLWu-KPzFYmVj-56" value="film öner" style="ellipse;whiteSpace=wrap;html=1;" parent="tISYJEiSLWu-KPzFYmVj-9" vertex="1">
          <mxGeometry x="384" y="144" width="108" height="36" as="geometry" />
        </mxCell>
        <mxCell id="tISYJEiSLWu-KPzFYmVj-57" value="müzik öner" style="ellipse;whiteSpace=wrap;html=1;" parent="tISYJEiSLWu-KPzFYmVj-9" vertex="1">
          <mxGeometry x="384" y="228" width="108" height="36" as="geometry" />
        </mxCell>
        <mxCell id="tISYJEiSLWu-KPzFYmVj-60" value="" style="endArrow=classic;html=1;rounded=0;exitX=0;exitY=0.5;exitDx=0;exitDy=0;entryX=1;entryY=0.5;entryDx=0;entryDy=0;" parent="tISYJEiSLWu-KPzFYmVj-9" source="tISYJEiSLWu-KPzFYmVj-56" target="tISYJEiSLWu-KPzFYmVj-30" edge="1">
          <mxGeometry width="50" height="50" relative="1" as="geometry">
            <mxPoint x="300" y="302" as="sourcePoint" />
            <mxPoint x="350" y="252" as="targetPoint" />
          </mxGeometry>
        </mxCell>
        <mxCell id="tISYJEiSLWu-KPzFYmVj-61" value="" style="endArrow=classic;html=1;rounded=0;exitX=0;exitY=0.5;exitDx=0;exitDy=0;entryX=1;entryY=0.5;entryDx=0;entryDy=0;" parent="tISYJEiSLWu-KPzFYmVj-9" source="tISYJEiSLWu-KPzFYmVj-57" target="tISYJEiSLWu-KPzFYmVj-31" edge="1">
          <mxGeometry width="50" height="50" relative="1" as="geometry">
            <mxPoint x="300" y="302" as="sourcePoint" />
            <mxPoint x="350" y="252" as="targetPoint" />
          </mxGeometry>
        </mxCell>
        <mxCell id="tISYJEiSLWu-KPzFYmVj-35" value="" style="endArrow=none;html=1;rounded=0;exitX=0;exitY=0.5;exitDx=0;exitDy=0;" parent="1" source="tISYJEiSLWu-KPzFYmVj-21" edge="1">
          <mxGeometry width="50" height="50" relative="1" as="geometry">
            <mxPoint x="372" y="314" as="sourcePoint" />
            <mxPoint x="180" y="312" as="targetPoint" />
          </mxGeometry>
        </mxCell>
        <mxCell id="tISYJEiSLWu-KPzFYmVj-36" value="" style="endArrow=none;html=1;rounded=0;exitX=0;exitY=0.5;exitDx=0;exitDy=0;" parent="1" source="tISYJEiSLWu-KPzFYmVj-20" edge="1">
          <mxGeometry width="50" height="50" relative="1" as="geometry">
            <mxPoint x="372" y="314" as="sourcePoint" />
            <mxPoint x="180" y="312" as="targetPoint" />
          </mxGeometry>
        </mxCell>
        <mxCell id="tISYJEiSLWu-KPzFYmVj-37" value="" style="endArrow=none;html=1;rounded=0;entryX=0;entryY=0.5;entryDx=0;entryDy=0;" parent="1" target="tISYJEiSLWu-KPzFYmVj-19" edge="1">
          <mxGeometry width="50" height="50" relative="1" as="geometry">
            <mxPoint x="180" y="312" as="sourcePoint" />
            <mxPoint x="422" y="264" as="targetPoint" />
          </mxGeometry>
        </mxCell>
        <mxCell id="tISYJEiSLWu-KPzFYmVj-38" value="" style="endArrow=none;html=1;rounded=0;entryX=0;entryY=0.5;entryDx=0;entryDy=0;" parent="1" target="tISYJEiSLWu-KPzFYmVj-13" edge="1">
          <mxGeometry width="50" height="50" relative="1" as="geometry">
            <mxPoint x="180" y="312" as="sourcePoint" />
            <mxPoint x="422" y="264" as="targetPoint" />
          </mxGeometry>
        </mxCell>
        <mxCell id="tISYJEiSLWu-KPzFYmVj-39" value="" style="endArrow=none;html=1;rounded=0;entryX=0;entryY=0.5;entryDx=0;entryDy=0;" parent="1" target="tISYJEiSLWu-KPzFYmVj-12" edge="1">
          <mxGeometry width="50" height="50" relative="1" as="geometry">
            <mxPoint x="180" y="312" as="sourcePoint" />
            <mxPoint x="422" y="264" as="targetPoint" />
          </mxGeometry>
        </mxCell>
        <mxCell id="tISYJEiSLWu-KPzFYmVj-48" value="yapay zeka&lt;div&gt;&lt;br&gt;&lt;/div&gt;" style="shape=umlActor;verticalLabelPosition=bottom;verticalAlign=top;html=1;" parent="1" vertex="1">
          <mxGeometry x="924" y="252" width="72" height="132" as="geometry" />
        </mxCell>
        <mxCell id="tISYJEiSLWu-KPzFYmVj-58" value="" style="endArrow=none;html=1;rounded=0;exitX=1;exitY=0.5;exitDx=0;exitDy=0;" parent="1" source="tISYJEiSLWu-KPzFYmVj-56" edge="1">
          <mxGeometry width="50" height="50" relative="1" as="geometry">
            <mxPoint x="576" y="386" as="sourcePoint" />
            <mxPoint x="912" y="324" as="targetPoint" />
          </mxGeometry>
        </mxCell>
        <mxCell id="tISYJEiSLWu-KPzFYmVj-59" value="" style="endArrow=none;html=1;rounded=0;exitX=1;exitY=0.5;exitDx=0;exitDy=0;" parent="1" source="tISYJEiSLWu-KPzFYmVj-57" edge="1">
          <mxGeometry width="50" height="50" relative="1" as="geometry">
            <mxPoint x="576" y="386" as="sourcePoint" />
            <mxPoint x="912" y="324" as="targetPoint" />
          </mxGeometry>
        </mxCell>
      </root>
    </mxGraphModel>
  </diagram>
</mxfile>
